<svg version="1.1" id="Capa_1" xmlns="http://www.w3.org/2000/svg" xmlns:xlink="http://www.w3.org/1999/xlink" x="0px" y="0px"
	 width="53.782px" height="47.67px" viewBox="0 0 53.782 47.67" enable-background="new 0 0 53.782 47.67" xml:space="preserve">
<path fill-rule="evenodd" clip-rule="evenodd" fill="#303030" d="M23.834,9.445c7.947,0,14.391,6.443,14.391,14.39
	s-6.443,14.39-14.391,14.39c-7.946,0-14.39-6.443-14.39-14.39S15.888,9.445,23.834,9.445 M23.834,0
	c13.163,0,23.835,10.672,23.835,23.835C47.668,36.998,36.997,47.67,23.834,47.67S0,36.998,0,23.836C0,10.672,10.671,0,23.834,0z"/>
<path fill-rule="evenodd" clip-rule="evenodd" fill="#e0221f" d="M48.422,0.045c-2.638,0-4.776,2.14-4.776,4.777
	s2.139,4.776,4.776,4.776s4.777-2.139,4.777-4.776S51.06,0.045,48.422,0.045"/>
</svg>