<svg version="1.1" id="Capa_1" xmlns="http://www.w3.org/2000/svg" xmlns:xlink="http://www.w3.org/1999/xlink" x="0px" y="0px"
	 width="268.782px" height="47.67px" viewBox="0 0 268.782 47.67" enable-background="new 0 0 268.782 47.67" xml:space="preserve">
<path fill-rule="evenodd" clip-rule="evenodd" fill="#303030" d="M168.299,16.468c-0.85-0.225-1.733-0.342-2.637-0.342
	c-2,0-3.912,0.608-5.521,1.608c-0.348-1.043-1.304-1.782-2.478-1.782c-1.435,0-2.607,1.13-2.607,2.564v16.647
	c0,1.435,1.173,2.607,2.607,2.607s2.608-1.173,2.608-2.607v-8.215c0-3.086,2.434-5.607,5.39-5.607c0.261,0,0.521,0.02,0.776,0.059
	L168.299,16.468z"/>
<path fill-rule="evenodd" clip-rule="evenodd" fill="#303030" d="M167.401,16.324c1.434,0,2.596,1.161,2.596,2.594
	s-1.162,2.595-2.596,2.595c-1.432,0-2.594-1.162-2.594-2.595S165.97,16.324,167.401,16.324"/>
<path fill-rule="evenodd" clip-rule="evenodd" fill="#303030" d="M84.36,37.861c-2.858,0-5.717-1.161-7.19-2.545
	c-1.071-0.983-1.161-2.68-0.134-3.752c0.982-1.117,2.68-1.161,3.751-0.179c0.805,0.759,3.797,1.786,5.493,0.67
	c0.447-0.269,0.715-0.759,0.715-1.251c0-0.625-0.536-1.071-0.982-1.25c-0.402-0.223-1.116-0.223-1.92-0.223
	c-1.072,0-2.278-0.045-3.528-0.492c-2.323-0.759-4.198-3.171-4.377-5.492c-0.223-2.814,0.982-4.556,2.01-5.539
	c2.233-2.054,5.493-2.366,7.86-1.965c1.786,0.313,3.126,0.938,4.242,1.965c1.072,0.983,1.161,2.68,0.179,3.752
	c-0.58,0.625-1.429,0.938-2.278,0.849c-0.401-0.045-0.803-0.179-1.16-0.402c-0.626-0.446-1.072-0.759-1.876-0.893
	c-1.34-0.224-3.841-0.134-3.662,1.786c0.045,0.223,0.446,0.805,0.804,0.938c0.446,0.135,1.116,0.135,1.831,0.135
	c1.161,0.045,2.635,0.045,4.109,0.715c2.456,1.115,4.063,3.527,4.063,6.117c0,2.278-1.161,4.422-3.081,5.717
	C87.71,37.504,86.058,37.861,84.36,37.861"/>
<path fill-rule="evenodd" clip-rule="evenodd" fill="#303030" d="M125.358,23.973c0-4.645-3.975-8.441-8.754-8.441
	c-2.456,0-4.6,0.894-6.163,2.412c-1.652-1.519-3.796-2.412-6.163-2.412c-1.474,0-2.857,0.357-4.108,0.982
	c-0.402-0.625-1.206-1.071-2.055-1.071c-1.429,0-2.68,1.251-2.68,2.724v17.061c0,1.429,1.251,2.635,2.68,2.635
	c1.52,0,2.68-1.206,2.68-2.635V23.973c0-1.742,1.563-3.082,3.483-3.082c1.921,0,3.483,1.34,3.483,3.082c0,0.045,0,0.089,0,0.133
	v0.18v10.807c0,1.52,1.162,2.681,2.68,2.681c1.43,0,2.635-1.161,2.635-2.681V24.285c0-0.045,0-0.09,0-0.18v-0.133
	c0-1.742,1.563-3.082,3.528-3.082c1.831,0,3.395,1.34,3.395,3.082c0,0.045,0,0.089,0,0.133v0.18v10.807
	c0,1.52,1.25,2.681,2.724,2.681c1.475,0,2.636-1.161,2.636-2.681V24.285c0-0.045,0-0.09,0-0.18V23.973z"/>
<path fill-rule="evenodd" clip-rule="evenodd" fill="#303030" d="M139.068,31.967c-3.082,0-5.627-2.457-5.627-5.538
	s2.545-5.583,5.627-5.583c3.037,0,5.582,2.502,5.582,5.583S142.105,31.967,139.068,31.967 M148.269,15.442
	c-1.474,0-2.367,1.161-2.367,2.546v0.223c-1.921-1.563-4.153-2.59-6.833-2.59c-5.984,0-10.808,4.867-10.808,10.808
	c0,5.939,4.823,10.763,10.808,10.763c2.68,0,4.912-0.982,6.833-2.635v0.535c0,1.385,0.894,2.546,2.367,2.546s2.59-1.161,2.59-2.546
	V17.988C150.858,16.604,149.742,15.442,148.269,15.442z"/>
<path fill-rule="evenodd" clip-rule="evenodd" fill="#303030" d="M183.974,32.279c-0.313,0-0.705,0.034-0.938-0.18
	c-0.304-0.277-0.313-0.792-0.313-1.16v-9.333h2.62c1.474,0,2.679-1.206,2.679-2.681c0-1.474-1.206-2.68-2.679-2.68h-2.62v-3.834
	c0-1.474-1.206-2.68-2.68-2.68s-2.68,1.208-2.68,2.68v3.834h-1.92c-1.474,0-2.68,1.206-2.68,2.68c0,1.475,1.205,2.681,2.68,2.681
	h1.92v9.958c0,1.385,0.621,2.996,1.519,4.02c1.022,1.165,2.456,1.786,3.93,2.01c0.402,0.044,0.76,0.044,1.161,0.044
	c1.474,0,2.68-1.161,2.68-2.679C186.653,33.484,185.447,32.279,183.974,32.279"/>
<path fill-rule="evenodd" clip-rule="evenodd" fill="#303030" d="M200.989,37.638c-2.948,0-5.672-1.116-7.771-3.126
	c-2.145-2.1-3.35-4.867-3.439-7.859c-0.045-2.947,1.027-5.807,3.171-7.95c2.055-2.144,4.823-3.35,7.815-3.438
	c2.992-0.045,5.806,1.072,7.949,3.171c1.072,0.982,1.117,2.724,0.09,3.751c-1.027,1.072-2.725,1.117-3.796,0.09
	c-1.116-1.072-2.591-1.652-4.153-1.652c-1.563,0-2.992,0.67-4.109,1.786c-1.027,1.116-1.652,2.591-1.607,4.153
	c0,1.519,0.67,3.037,1.786,4.064c1.116,1.116,2.591,1.697,4.109,1.652c1.474,0,2.858-0.581,3.93-1.563
	c1.027-1.027,2.769-0.938,3.751,0.134c1.027,1.072,0.938,2.77-0.134,3.797c-2.01,1.875-4.645,2.947-7.413,2.991H200.989z"/>
<path fill-rule="evenodd" clip-rule="evenodd" fill="#303030" d="M222.872,31.967c-3.081,0-5.627-2.457-5.627-5.538
	s2.546-5.583,5.627-5.583c3.037,0,5.583,2.502,5.583,5.583S225.909,31.967,222.872,31.967 M232.072,15.442
	c-1.474,0-2.367,1.161-2.367,2.546v0.223c-1.92-1.563-4.153-2.59-6.833-2.59c-5.984,0-10.808,4.867-10.808,10.808
	c0,5.939,4.823,10.763,10.808,10.763c2.68,0,4.913-0.982,6.833-2.635v0.535c0,1.385,0.894,2.546,2.367,2.546s2.59-1.161,2.59-2.546
	V17.988C234.662,16.604,233.546,15.442,232.072,15.442z"/>
<path fill-rule="evenodd" clip-rule="evenodd" fill="#303030" d="M268.782,23.973c0-4.645-3.975-8.441-8.753-8.441
	c-2.456,0-4.601,0.894-6.163,2.412c-1.652-1.519-3.797-2.412-6.163-2.412c-1.474,0-2.858,0.357-4.109,0.982
	c-0.401-0.625-1.205-1.071-2.054-1.071c-1.43,0-2.68,1.251-2.68,2.724v17.061c0,1.429,1.25,2.635,2.68,2.635
	c1.519,0,2.68-1.206,2.68-2.635V23.973c0-1.742,1.563-3.082,3.483-3.082c1.92,0,3.483,1.34,3.483,3.082c0,0.045,0,0.089,0,0.133
	v0.18v10.807c0,1.52,1.161,2.681,2.68,2.681c1.429,0,2.635-1.161,2.635-2.681V24.285c0-0.045,0-0.09,0-0.18v-0.133
	c0-1.742,1.563-3.082,3.528-3.082c1.83,0,3.394,1.34,3.394,3.082c0,0.045,0,0.089,0,0.133v0.18v10.807
	c0,1.52,1.251,2.681,2.725,2.681s2.635-1.161,2.635-2.681V24.285c0-0.045,0-0.09,0-0.18V23.973z"/>
<path fill-rule="evenodd" clip-rule="evenodd" fill="#303030" d="M23.834,9.445c7.947,0,14.391,6.443,14.391,14.39
	s-6.443,14.39-14.391,14.39c-7.946,0-14.39-6.443-14.39-14.39S15.888,9.445,23.834,9.445 M23.834,0
	c13.163,0,23.835,10.672,23.835,23.835C47.668,36.998,36.997,47.67,23.834,47.67S0,36.998,0,23.836C0,10.672,10.671,0,23.834,0z"/>
<path fill-rule="evenodd" clip-rule="evenodd" fill="#e0221f" d="M48.422,0.045c-2.638,0-4.776,2.14-4.776,4.777
	s2.139,4.776,4.776,4.776s4.777-2.139,4.777-4.776S51.06,0.045,48.422,0.045"/>
</svg>